<?xml version="1.0" standalone="no"?>
<!DOCTYPE svg PUBLIC "-//W3C//DTD SVG 20010904//EN"
 "http://www.w3.org/TR/2001/REC-SVG-20010904/DTD/svg10.dtd">
<svg version="1.0" xmlns="http://www.w3.org/2000/svg"
 width="401.000000pt" height="401.000000pt" viewBox="0 0 401.000000 401.000000"
 preserveAspectRatio="xMidYMid meet">
<metadata>
Created by potrace 1.14, written by Peter Selinger 2001-2017
</metadata>
<g transform="translate(0.000000,401.000000) scale(0.100000,-0.100000)"
fill="#000000" stroke="none">
<path d="M2523 3793 l-341 -197 0 -776 c-1 -426 -1 -778 -1 -782 -1 -5 -61
-42 -137 -84 -12 -6 -93 -53 -180 -104 -88 -51 -195 -113 -239 -139 -44 -25
-88 -50 -98 -56 -18 -10 -19 -28 -19 -390 1 -209 1 -389 1 -400 1 -13 17 -29
44 -44 23 -13 83 -47 132 -76 139 -82 468 -271 491 -283 17 -9 33 -4 95 32
171 98 807 465 839 485 19 11 60 34 90 51 30 17 62 35 70 40 8 6 76 45 150 88
l135 78 3 1180 2 1180 -341 197 c-187 108 -343 197 -347 197 -5 0 -161 -89
-349 -197z m635 -30 c158 -91 297 -172 310 -179 27 -14 52 3 -363 -238 l-230
-133 -55 30 c-30 17 -161 92 -290 167 -130 75 -243 139 -253 143 -9 3 -17 10
-17 15 0 5 583 352 608 361 1 1 132 -74 290 -166z m346 -590 c-1 -203 -2 -371
-3 -374 -1 -5 -239 -147 -265 -158 -5 -2 -85 -48 -178 -102 -92 -53 -169 -97
-170 -96 0 1 -2 170 -3 375 l-2 372 196 114 c108 62 218 126 245 141 28 15 75
43 105 61 31 18 61 33 66 34 7 0 10 -125 9 -367z m1 -786 l0 -372 -45 -26
c-67 -38 -108 -62 -253 -146 -166 -96 -319 -183 -322 -183 -1 0 -1 169 -1 375
l1 374 59 36 c32 19 60 35 61 35 2 0 49 27 105 60 56 33 103 60 105 60 2 0 32
17 66 38 35 22 91 54 124 72 33 18 64 36 70 41 28 26 30 1 30 -364z m-970
-571 c165 -95 299 -177 298 -181 -1 -6 -244 -150 -508 -300 -22 -13 -60 -35
-85 -49 l-45 -25 -55 31 c-30 17 -71 40 -91 52 -20 12 -134 77 -253 146 -125
72 -212 128 -207 133 14 14 625 366 636 366 6 1 145 -77 310 -173z m970 -193
c0 -224 -4 -358 -10 -360 -6 -2 -142 -80 -303 -173 -162 -94 -297 -170 -301
-170 -4 0 -8 159 -8 354 0 335 1 354 19 365 30 19 397 230 458 264 30 17 71
41 90 53 19 13 40 23 45 23 7 1 10 -121 10 -356z m-645 -366 l0 -353 -30 -22
c-16 -12 -31 -22 -34 -22 -4 0 -313 -177 -426 -245 -96 -57 -152 -86 -157 -81
-3 2 -5 161 -4 352 0 274 2 350 13 359 7 7 36 25 63 40 28 14 64 34 80 44 36
21 359 208 395 228 14 8 39 23 55 33 17 10 33 19 38 19 4 1 7 -158 7 -352z"/>
</g>
</svg>
